<svg width="128" height="128" xmlns="http://www.w3.org/2000/svg">
  <defs>
    <!-- 스프라이트 시트 정의: 4x4 그리드 (4방향 x 4프레임) -->
    <pattern id="character-sprite" patternUnits="userSpaceOnUse" width="128" height="128">
      <!-- 각 프레임은 32x32 픽셀 -->
      
      <!-- 프레임 1: 정면 (아래쪽 보기) -->
      <g transform="translate(0, 32)">
        <!-- 머리 -->
        <circle cx="16" cy="8" r="6" fill="#FFB6C1" stroke="#8B4513" stroke-width="1"/>
        <!-- 몸통 -->
        <rect x="12" y="14" width="8" height="12" fill="#4169E1" stroke="#000" stroke-width="1"/>
        <!-- 팔 -->
        <rect x="8" y="16" width="4" height="8" fill="#FFB6C1" stroke="#000" stroke-width="1"/>
        <rect x="20" y="16" width="4" height="8" fill="#FFB6C1" stroke="#000" stroke-width="1"/>
        <!-- 다리 -->
        <rect x="12" y="26" width="3" height="6" fill="#4169E1" stroke="#000" stroke-width="1"/>
        <rect x="17" y="26" width="3" height="6" fill="#4169E1" stroke="#000" stroke-width="1"/>
      </g>
      
      <!-- 프레임 2: 정면 (아래쪽 보기) - 걷는 모션 -->
      <g transform="translate(32, 32)">
        <!-- 머리 -->
        <circle cx="16" cy="8" r="6" fill="#FFB6C1" stroke="#8B4513" stroke-width="1"/>
        <!-- 몸통 -->
        <rect x="12" y="14" width="8" height="12" fill="#4169E1" stroke="#000" stroke-width="1"/>
        <!-- 팔 (움직임) -->
        <rect x="6" y="14" width="4" height="10" fill="#FFB6C1" stroke="#000" stroke-width="1"/>
        <rect x="22" y="18" width="4" height="10" fill="#FFB6C1" stroke="#000" stroke-width="1"/>
        <!-- 다리 (움직임) -->
        <rect x="10" y="26" width="3" height="6" fill="#4169E1" stroke="#000" stroke-width="1"/>
        <rect x="19" y="28" width="3" height="6" fill="#4169E1" stroke="#000" stroke-width="1"/>
      </g>
      
      <!-- 프레임 3: 정면 (아래쪽 보기) - 걷는 모션 -->
      <g transform="translate(64, 32)">
        <!-- 머리 -->
        <circle cx="16" cy="8" r="6" fill="#FFB6C1" stroke="#8B4513" stroke-width="1"/>
        <!-- 몸통 -->
        <rect x="12" y="14" width="8" height="12" fill="#4169E1" stroke="#000" stroke-width="1"/>
        <!-- 팔 (움직임) -->
        <rect x="22" y="14" width="4" height="10" fill="#FFB6C1" stroke="#000" stroke-width="1"/>
        <rect x="6" y="18" width="4" height="10" fill="#FFB6C1" stroke="#000" stroke-width="1"/>
        <!-- 다리 (움직임) -->
        <rect x="19" y="26" width="3" height="6" fill="#4169E1" stroke="#000" stroke-width="1"/>
        <rect x="10" y="28" width="3" height="6" fill="#4169E1" stroke="#000" stroke-width="1"/>
      </g>
      
      <!-- 프레임 4: 정면 (아래쪽 보기) - 걷는 모션 -->
      <g transform="translate(96, 32)">
        <!-- 머리 -->
        <circle cx="16" cy="8" r="6" fill="#FFB6C1" stroke="#8B4513" stroke-width="1"/>
        <!-- 몸통 -->
        <rect x="12" y="14" width="8" height="12" fill="#4169E1" stroke="#000" stroke-width="1"/>
        <!-- 팔 -->
        <rect x="8" y="16" width="4" height="8" fill="#FFB6C1" stroke="#000" stroke-width="1"/>
        <rect x="20" y="16" width="4" height="8" fill="#FFB6C1" stroke="#000" stroke-width="1"/>
        <!-- 다리 -->
        <rect x="12" y="26" width="3" height="6" fill="#4169E1" stroke="#000" stroke-width="1"/>
        <rect x="17" y="26" width="3" height="6" fill="#4169E1" stroke="#000" stroke-width="1"/>
      </g>
      
      <!-- 프레임 5: 위쪽 보기 -->
      <g transform="translate(0, 0)">
        <!-- 머리 (뒤에서 보기) -->
        <circle cx="16" cy="8" r="6" fill="#FFB6C1" stroke="#8B4513" stroke-width="1"/>
        <!-- 몸통 -->
        <rect x="12" y="14" width="8" height="12" fill="#4169E1" stroke="#000" stroke-width="1"/>
        <!-- 팔 -->
        <rect x="8" y="16" width="4" height="8" fill="#FFB6C1" stroke="#000" stroke-width="1"/>
        <rect x="20" y="16" width="4" height="8" fill="#FFB6C1" stroke="#000" stroke-width="1"/>
        <!-- 다리 -->
        <rect x="12" y="26" width="3" height="6" fill="#4169E1" stroke="#000" stroke-width="1"/>
        <rect x="17" y="26" width="3" height="6" fill="#4169E1" stroke="#000" stroke-width="1"/>
      </g>
      
      <!-- 프레임 6: 위쪽 보기 - 걷는 모션 -->
      <g transform="translate(32, 0)">
        <!-- 머리 -->
        <circle cx="16" cy="8" r="6" fill="#FFB6C1" stroke="#8B4513" stroke-width="1"/>
        <!-- 몸통 -->
        <rect x="12" y="14" width="8" height="12" fill="#4169E1" stroke="#000" stroke-width="1"/>
        <!-- 팔 (움직임) -->
        <rect x="6" y="14" width="4" height="10" fill="#FFB6C1" stroke="#000" stroke-width="1"/>
        <rect x="22" y="18" width="4" height="10" fill="#FFB6C1" stroke="#000" stroke-width="1"/>
        <!-- 다리 (움직임) -->
        <rect x="10" y="26" width="3" height="6" fill="#4169E1" stroke="#000" stroke-width="1"/>
        <rect x="19" y="28" width="3" height="6" fill="#4169E1" stroke="#000" stroke-width="1"/>
      </g>
      
      <!-- 프레임 7: 위쪽 보기 - 걷는 모션 -->
      <g transform="translate(64, 0)">
        <!-- 머리 -->
        <circle cx="16" cy="8" r="6" fill="#FFB6C1" stroke="#8B4513" stroke-width="1"/>
        <!-- 몸통 -->
        <rect x="12" y="14" width="8" height="12" fill="#4169E1" stroke="#000" stroke-width="1"/>
        <!-- 팔 (움직임) -->
        <rect x="22" y="14" width="4" height="10" fill="#FFB6C1" stroke="#000" stroke-width="1"/>
        <rect x="6" y="18" width="4" height="10" fill="#FFB6C1" stroke="#000" stroke-width="1"/>
        <!-- 다리 (움직임) -->
        <rect x="19" y="26" width="3" height="6" fill="#4169E1" stroke="#000" stroke-width="1"/>
        <rect x="10" y="28" width="3" height="6" fill="#4169E1" stroke="#000" stroke-width="1"/>
      </g>
      
      <!-- 프레임 8: 위쪽 보기 - 걷는 모션 -->
      <g transform="translate(96, 0)">
        <!-- 머리 -->
        <circle cx="16" cy="8" r="6" fill="#FFB6C1" stroke="#8B4513" stroke-width="1"/>
        <!-- 몸통 -->
        <rect x="12" y="14" width="8" height="12" fill="#4169E1" stroke="#000" stroke-width="1"/>
        <!-- 팔 -->
        <rect x="8" y="16" width="4" height="8" fill="#FFB6C1" stroke="#000" stroke-width="1"/>
        <rect x="20" y="16" width="4" height="8" fill="#FFB6C1" stroke="#000" stroke-width="1"/>
        <!-- 다리 -->
        <rect x="12" y="26" width="3" height="6" fill="#4169E1" stroke="#000" stroke-width="1"/>
        <rect x="17" y="26" width="3" height="6" fill="#4169E1" stroke="#000" stroke-width="1"/>
      </g>
      
      <!-- 프레임 9: 왼쪽 보기 -->
      <g transform="translate(0, 64)">
        <!-- 머리 -->
        <circle cx="16" cy="8" r="6" fill="#FFB6C1" stroke="#8B4513" stroke-width="1"/>
        <!-- 몸통 -->
        <rect x="12" y="14" width="8" height="12" fill="#4169E1" stroke="#000" stroke-width="1"/>
        <!-- 팔 (왼쪽) -->
        <rect x="8" y="16" width="4" height="8" fill="#FFB6C1" stroke="#000" stroke-width="1"/>
        <!-- 다리 -->
        <rect x="12" y="26" width="3" height="6" fill="#4169E1" stroke="#000" stroke-width="1"/>
        <rect x="17" y="26" width="3" height="6" fill="#4169E1" stroke="#000" stroke-width="1"/>
      </g>
      
      <!-- 프레임 10: 왼쪽 보기 - 걷는 모션 -->
      <g transform="translate(32, 64)">
        <!-- 머리 -->
        <circle cx="16" cy="8" r="6" fill="#FFB6C1" stroke="#8B4513" stroke-width="1"/>
        <!-- 몸통 -->
        <rect x="12" y="14" width="8" height="12" fill="#4169E1" stroke="#000" stroke-width="1"/>
        <!-- 팔 (움직임) -->
        <rect x="6" y="14" width="4" height="10" fill="#FFB6C1" stroke="#000" stroke-width="1"/>
        <!-- 다리 (움직임) -->
        <rect x="10" y="26" width="3" height="6" fill="#4169E1" stroke="#000" stroke-width="1"/>
        <rect x="19" y="28" width="3" height="6" fill="#4169E1" stroke="#000" stroke-width="1"/>
      </g>
      
      <!-- 프레임 11: 왼쪽 보기 - 걷는 모션 -->
      <g transform="translate(64, 64)">
        <!-- 머리 -->
        <circle cx="16" cy="8" r="6" fill="#FFB6C1" stroke="#8B4513" stroke-width="1"/>
        <!-- 몸통 -->
        <rect x="12" y="14" width="8" height="12" fill="#4169E1" stroke="#000" stroke-width="1"/>
        <!-- 팔 (움직임) -->
        <rect x="22" y="18" width="4" height="10" fill="#FFB6C1" stroke="#000" stroke-width="1"/>
        <!-- 다리 (움직임) -->
        <rect x="19" y="26" width="3" height="6" fill="#4169E1" stroke="#000" stroke-width="1"/>
        <rect x="10" y="28" width="3" height="6" fill="#4169E1" stroke="#000" stroke-width="1"/>
      </g>
      
      <!-- 프레임 12: 왼쪽 보기 - 걷는 모션 -->
      <g transform="translate(96, 64)">
        <!-- 머리 -->
        <circle cx="16" cy="8" r="6" fill="#FFB6C1" stroke="#8B4513" stroke-width="1"/>
        <!-- 몸통 -->
        <rect x="12" y="14" width="8" height="12" fill="#4169E1" stroke="#000" stroke-width="1"/>
        <!-- 팔 -->
        <rect x="8" y="16" width="4" height="8" fill="#FFB6C1" stroke="#000" stroke-width="1"/>
        <!-- 다리 -->
        <rect x="12" y="26" width="3" height="6" fill="#4169E1" stroke="#000" stroke-width="1"/>
        <rect x="17" y="26" width="3" height="6" fill="#4169E1" stroke="#000" stroke-width="1"/>
      </g>
      
      <!-- 프레임 13: 오른쪽 보기 -->
      <g transform="translate(0, 96)">
        <!-- 머리 -->
        <circle cx="16" cy="8" r="6" fill="#FFB6C1" stroke="#8B4513" stroke-width="1"/>
        <!-- 몸통 -->
        <rect x="12" y="14" width="8" height="12" fill="#4169E1" stroke="#000" stroke-width="1"/>
        <!-- 팔 (오른쪽) -->
        <rect x="20" y="16" width="4" height="8" fill="#FFB6C1" stroke="#000" stroke-width="1"/>
        <!-- 다리 -->
        <rect x="12" y="26" width="3" height="6" fill="#4169E1" stroke="#000" stroke-width="1"/>
        <rect x="17" y="26" width="3" height="6" fill="#4169E1" stroke="#000" stroke-width="1"/>
      </g>
      
      <!-- 프레임 14: 오른쪽 보기 - 걷는 모션 -->
      <g transform="translate(32, 96)">
        <!-- 머리 -->
        <circle cx="16" cy="8" r="6" fill="#FFB6C1" stroke="#8B4513" stroke-width="1"/>
        <!-- 몸통 -->
        <rect x="12" y="14" width="8" height="12" fill="#4169E1" stroke="#000" stroke-width="1"/>
        <!-- 팔 (움직임) -->
        <rect x="22" y="14" width="4" height="10" fill="#FFB6C1" stroke="#000" stroke-width="1"/>
        <!-- 다리 (움직임) -->
        <rect x="19" y="26" width="3" height="6" fill="#4169E1" stroke="#000" stroke-width="1"/>
        <rect x="10" y="28" width="3" height="6" fill="#4169E1" stroke="#000" stroke-width="1"/>
      </g>
      
      <!-- 프레임 15: 오른쪽 보기 - 걷는 모션 -->
      <g transform="translate(64, 96)">
        <!-- 머리 -->
        <circle cx="16" cy="8" r="6" fill="#FFB6C1" stroke="#8B4513" stroke-width="1"/>
        <!-- 몸통 -->
        <rect x="12" y="14" width="8" height="12" fill="#4169E1" stroke="#000" stroke-width="1"/>
        <!-- 팔 (움직임) -->
        <rect x="6" y="18" width="4" height="10" fill="#FFB6C1" stroke="#000" stroke-width="1"/>
        <!-- 다리 (움직임) -->
        <rect x="10" y="26" width="3" height="6" fill="#4169E1" stroke="#000" stroke-width="1"/>
        <rect x="19" y="28" width="3" height="6" fill="#4169E1" stroke="#000" stroke-width="1"/>
      </g>
      
      <!-- 프레임 16: 오른쪽 보기 - 걷는 모션 -->
      <g transform="translate(96, 96)">
        <!-- 머리 -->
        <circle cx="16" cy="8" r="6" fill="#FFB6C1" stroke="#8B4513" stroke-width="1"/>
        <!-- 몸통 -->
        <rect x="12" y="14" width="8" height="12" fill="#4169E1" stroke="#000" stroke-width="1"/>
        <!-- 팔 -->
        <rect x="20" y="16" width="4" height="8" fill="#FFB6C1" stroke="#000" stroke-width="1"/>
        <!-- 다리 -->
        <rect x="12" y="26" width="3" height="6" fill="#4169E1" stroke="#000" stroke-width="1"/>
        <rect x="17" y="26" width="3" height="6" fill="#4169E1" stroke="#000" stroke-width="1"/>
      </g>
    </pattern>
  </defs>
  
  <!-- 전체 스프라이트 시트 -->
  <rect width="128" height="128" fill="url(#character-sprite)"/>
</svg>
